<?xml version="1.0"?><svg xmlns="http://www.w3.org/2000/svg" id="Shuffle" viewBox="0 0 32 32"><g><path d="M23,24h-4c-.55,0-1-.45-1-1s.45-1,1-1h3v-3c0-.55.45-1,1-1s1,.45,1,1v4c0,.55-.45,1-1,1Z"/><path d="M23,14c-.55,0-1-.45-1-1v-3h-3c-.55,0-1-.45-1-1s.45-1,1-1h4c.55,0,1,.45,1,1v4c0,.55-.45,1-1,1Z"/><path d="M23,24c-.26,0-.51-.1-.71-.29l-14-14c-.39-.39-.39-1.02,0-1.41s1.02-.39,1.41,0l14,14c.39.39.39,1.02,0,1.41-.2.2-.45.29-.71.29Z"/><path d="M18,15c-.26,0-.51-.1-.71-.29-.39-.39-.39-1.02,0-1.41l5-5c.39-.39,1.02-.39,1.41,0s.39,1.02,0,1.41l-5,5c-.2.2-.45.29-.71.29Z"/><path d="M9,24c-.26,0-.51-.1-.71-.29-.39-.39-.39-1.02,0-1.41l5-5c.39-.39,1.02-.39,1.41,0s.39,1.02,0,1.41l-5,5c-.2.2-.45.29-.71.29Z"/></g><path d="M27,30H5c-1.65,0-3-1.35-3-3V5c0-1.65,1.35-3,3-3h22c1.65,0,3,1.35,3,3v22c0,1.65-1.35,3-3,3ZM5,4c-.55,0-1,.45-1,1v22c0,.55.45,1,1,1h22c.55,0,1-.45,1-1V5c0-.55-.45-1-1-1H5Z"/></svg>